<?xml version="1.0" encoding="UTF-8" standalone="no"?>
<!-- Created with Inkscape (http://www.inkscape.org/) -->

<svg
   version="1.1"
   id="svg1"
   width="740"
   height="740"
   viewBox="0 0 740 740"
   xmlns="http://www.w3.org/2000/svg"
   xmlns:svg="http://www.w3.org/2000/svg">
  <defs
     id="defs1" />
  <g
     id="g1">
    <path
       style="fill:#ffffff;fill-opacity:1"
       d="m 161.91943,520.16926 c -7.29163,-2.33843 -11.65107,-5.07271 -16.49025,-10.34283 -5.53185,-6.02446 -8.07538,-10.52505 -9.83913,-17.40962 -1.35047,-5.27143 -1.50548,-21.10441 -1.2724,-129.9705 l 0.26541,-123.96782 3.76588,-7.61933 c 4.3468,-8.79466 10.72138,-15.14932 19.54191,-19.48083 l 5.69221,-2.79528 h 201 201 l 5.70163,2.30375 c 6.69675,2.70583 14.34348,9.2539 18.65769,15.97702 6.44603,10.04526 6.19878,4.14853 5.90609,140.85597 l -0.26541,123.96782 -3.76588,7.61933 c -4.3468,8.79466 -10.72138,15.14932 -19.54191,19.48083 l -5.69221,2.79528 -199.5,0.20127 c -190.34196,0.19204 -199.75999,0.1179 -205.16363,-1.61506 z m 159.64521,-40.18255 c 6.15859,-2.89488 11.11191,-8.69751 13.01618,-15.24795 1.37365,-4.72519 1.54046,-13.10719 1.28995,-64.81963 l -0.28771,-59.39266 -2.5546,-4.96248 c -2.87557,-5.58598 -9.15334,-10.88915 -14.72066,-12.43533 -2.37454,-0.65947 -25.49388,-1.03648 -63.7784,-1.04003 l -60.05365,-0.006 -5.19792,2.59023 c -2.85885,1.42463 -6.56013,4.23713 -8.22507,6.25 -5.89983,7.13279 -5.9697,7.95553 -5.9697,70.29205 0,37.26213 0.37526,58.51907 1.09208,61.86149 1.48437,6.92135 6.19596,12.88462 12.8441,16.25623 l 5.42245,2.75 h 61.33158 c 60.18621,0 61.41487,-0.0392 65.79137,-2.09634 z M 207.67108,453.83305 c 1.70911,-11.87559 5.9819,-21.12182 13.17171,-28.50332 8.47256,-8.69846 18.1115,-13.30181 30.8324,-14.72489 17.98972,-2.01249 37.30536,8.5421 46.20595,25.24821 2.78842,5.23376 6.12296,16.54558 6.18456,20.98 0.0136,0.98306 -10.34241,1.25 -48.49446,1.25 h -48.51182 z m 37.74443,-52.60107 c -17.19379,-5.94174 -25.30053,-25.28701 -17.45322,-41.64893 5.32631,-11.10556 15.22511,-17.47244 27.19263,-17.49023 8.52351,-0.0127 14.71074,2.16649 20.42,7.19198 13.30948,11.71547 14.0262,32.37543 1.55576,44.84587 -8.27169,8.27169 -20.44254,10.99685 -31.71517,7.10131 z m 297.35245,79.78974 c 3.81811,-1.43949 9.25163,-6.73496 10.93434,-10.65655 3.75238,-8.74499 0.22354,-19.61559 -8.02634,-24.72517 l -4.75183,-2.94305 -77.17054,-0.1489 c -61.14752,-0.11798 -78.11053,0.12405 -81.6978,1.16565 -4.83462,1.40379 -9.67609,5.73956 -12.36078,11.06969 -3.32174,6.59492 -1.25695,16.58127 4.54787,21.99582 5.7679,5.3801 3.14704,5.22246 87.52508,5.2647 52.79341,0.0264 79.09914,-0.30554 81,-1.02219 z m -61.8849,-86.13867 c 0.66,-0.66 1.2,-2.145 1.2,-3.3 0,-4.53301 0.40506,-4.5 -55.22144,-4.5 h -52.82144 l -1.13722,2.49594 c -0.93966,2.06233 -0.82215,2.84409 0.67642,4.5 1.77071,1.95661 3.04841,2.00406 53.95867,2.00406 39.2239,0 52.44236,-0.29735 53.34501,-1.2 z m 67.97749,-32.3567 c 1.22238,-0.85619 2.22251,-2.40567 2.22251,-3.4433 0,-1.03763 -1.00013,-2.58711 -2.22251,-3.4433 -1.96925,-1.37931 -11.91455,-1.5567 -87.27749,-1.5567 -75.36294,0 -85.30824,0.17739 -87.27749,1.5567 -1.22238,0.85619 -2.22251,2.40567 -2.22251,3.4433 0,1.03763 1.00013,2.58711 2.22251,3.4433 1.96925,1.37931 11.91455,1.5567 87.27749,1.5567 75.36294,0 85.30824,-0.17739 87.27749,-1.5567 z m 1.18733,-33.37756 c 1.40639,-2.62788 1.30648,-3.65158 -0.53625,-5.49431 -1.40424,-1.40424 -10.73202,-1.57143 -87.67126,-1.57143 -78.71348,0 -86.25671,0.14198 -87.92857,1.65499 -2.24254,2.02947 -2.31759,3.71331 -0.25731,5.77358 1.40446,1.40446 10.80416,1.57143 88.46481,1.57143 84.88549,0 86.91731,-0.0447 87.92858,-1.93426 z M 422.75682,282.43357 c 4.60189,-2.18374 6.1179,-4.72649 6.92814,-11.62038 l 0.67346,-5.73014 h -6.08542 -6.08542 l -0.30226,5.25 c -0.22256,3.86566 -0.69779,5.25 -1.80226,5.25 -1.2643,0 -1.5,-2.27626 -1.5,-14.4863 0,-13.00143 0.17938,-14.52086 1.75,-14.82333 1.51156,-0.2911 1.75,0.49047 1.75,5.73631 v 6.07332 h 6.1446 6.14461 l -0.62687,-6.71304 c -0.52981,-5.67352 -1.08952,-7.17567 -3.61453,-9.70069 -2.56402,-2.56402 -3.89867,-3.04566 -9.4126,-3.39676 -6.20263,-0.39496 -6.55835,-0.28678 -10.28008,3.1261 l -3.85513,3.53521 v 15.36972 c 0,13.19621 0.25815,15.76354 1.82548,18.1546 3.46107,5.28009 11.7941,7.08554 18.34828,3.97538 z m 85.01744,-0.29727 c 3.47084,-1.57577 4.37693,-2.59254 5.27178,-5.91576 2.31511,-8.59766 -0.96603,-15.71081 -9.574,-20.75542 -4.25327,-2.49258 -6.34412,-6.0276 -4.92411,-8.32523 1.38529,-2.24145 3.53513,-1.05974 3.53513,1.94316 0,2.9697 0.0556,3 5.5,3 6.11588,0 6.355,-0.38164 4.47654,-7.14455 -1.23511,-4.44667 -5.60166,-6.85545 -12.42733,-6.85545 -8.34455,0 -12.54921,3.90201 -12.54921,11.64592 0,5.52341 2.53615,9.48505 9.02752,14.10163 5.59435,3.97862 5.97248,4.50095 5.97248,8.25 0,2.89107 -0.41651,4.00245 -1.5,4.00245 -1.61125,0 -1.80044,-0.7135 -1.5247,-5.75 l 0.17794,-3.25 h -5.57662 -5.57662 v 5.32569 c 0,4.23032 0.46287,5.76053 2.25051,7.43993 4.79299,4.50278 10.82023,5.29335 17.44069,2.28763 z m -290.60091,-1.91403 c 1.71015,-2.1141 1.90971,-4.11636 1.90971,-19.16111 v -16.80032 l -3.11677,-2.62259 c -2.97609,-2.50421 -3.57415,-2.60978 -13.25,-2.33889 l -10.13323,0.28369 -0.0323,21 c -0.0178,11.55 0.14508,21.37598 0.36186,21.83551 0.21679,0.45953 5.33445,0.68453 11.37258,0.5 10.12543,-0.30944 11.12681,-0.51894 12.88814,-2.69629 z m -13.09029,-19.13922 c 0,-11.25318 0.27142,-14 1.38337,-14 2.01233,0 2.25639,2.12538 1.80859,15.75 -0.31613,9.6186 -0.7022,12.25 -1.79729,12.25 -1.12648,0 -1.39467,-2.69213 -1.39467,-14 z m 31.20234,11.75 c -0.24544,-8.0393 -0.0402,-9.75 1.16985,-9.75 1.14539,0 1.62389,2.20553 2.17987,10.04767 l 0.71234,10.04768 5.1178,-0.29768 5.1178,-0.29767 v -9.14779 c 0,-7.68355 -0.31376,-9.49405 -1.96024,-11.31105 -1.51782,-1.67502 -1.67048,-2.34234 -0.67639,-2.95672 1.98591,-1.22736 3.15025,-8.08996 2.13595,-12.58934 -1.44593,-6.4141 -3.62523,-7.4951 -15.1101,-7.4951 h -9.88922 v 22.0499 22.04991 l 5.75,-0.29991 5.75,-0.2999 z m 0.5304,-21 c 0.62671,-4.91032 0.76441,-5.17881 2.20073,-4.29112 2.1539,1.33119 0.93386,8.54112 -1.4453,8.54112 -0.94531,0 -1.15051,-1.15446 -0.75543,-4.25 z m 30.26726,9.25 v -22 h -6 -6 v 22 22 h 6 6 z m 27.29735,15 c 0.43855,-3.575 1.67605,-12.9307 2.75,-20.79044 1.07396,-7.85974 1.95265,-14.72224 1.95265,-15.25 0,-0.52776 -2.65122,-0.95956 -5.89159,-0.95956 -6.93022,0 -6.59726,-0.62361 -7.74194,14.5 -0.85035,11.2349 -0.93656,11.12062 -2.64207,-3.5022 l -1.2244,-10.4978 -6.30453,-0.29913 -6.30453,-0.29914 0.54948,3.29914 c 1.43737,8.62997 3.49692,22.11139 4.55241,29.79913 0.64186,4.675 1.34869,9.08013 1.57074,9.78917 0.29857,0.95339 2.68706,1.21385 9.17008,1 l 8.76635,-0.28917 z m 26.70265,2.5 v -4.5 h -4 -4 v -4.75967 c 0,-4.70519 0.0372,-4.75955 3.25,-4.75 3.11041,0.009 3.26321,-0.17287 3.5575,-4.24033 l 0.3075,-4.25 h -3.5575 c -3.47466,0 -3.5575,-0.0917 -3.5575,-3.93963 0,-3.83063 0.10376,-3.94823 3.75,-4.25 3.64003,-0.30127 3.75902,-0.435 4.0575,-4.56037 l 0.3075,-4.25 h -10.0575 -10.0575 v 22 22 h 10 10 z m 16,-5.5 c 0,-5.5 0.40186,-10 0.89301,-10 1.57157,0 2.10699,2.95643 2.10699,11.63405 v 8.47047 l 5.25,-0.30226 5.25,-0.30226 0.28717,-8.6291 c 0.26581,-7.98717 0.099,-8.85274 -2.24242,-11.63535 -2.33158,-2.77092 -2.38529,-3.04399 -0.68618,-3.48831 2.40523,-0.62899 3.55381,-7.50206 2.13452,-12.7729 -1.60068,-5.94449 -3.84746,-6.97434 -15.2156,-6.97434 h -9.77749 v 22 22 h 6 6 z m 0,-21.5 c 0,-3.28889 0.36905,-4.54365 1.25,-4.25 0.71014,0.23671 1.25,2.07222 1.25,4.25 0,2.17778 -0.53986,4.01329 -1.25,4.25 -0.88095,0.29365 -1.25,-0.96111 -1.25,-4.25 z m 47,27.06336 c 0,-4.2745 -0.11878,-4.4481 -3.25,-4.75 l -3.25,-0.31336 -0.27361,-17.25 -0.27362,-17.25 h -5.47638 -5.47639 v 22 22 h 9 9 z m 15,-17.56336 v -22 h -6 -6 v 22 22 h 6 6 z m 56,17.5 v -4.5 h -4 -4 v -5 -5 h 3.5 c 3.41667,0 3.5,-0.0952 3.5,-4 0,-3.90476 -0.0833,-4 -3.5,-4 -3.41667,0 -3.5,-0.0952 -3.5,-4 0,-3.90476 0.0833,-4 3.5,-4 3.48148,0 3.5,-0.0238 3.5,-4.5 v -4.5 h -9.5 -9.5 v 22 22 h 10 10 z m 13.21125,-0.75 c 0.11618,-2.8875 0.17735,-6.7125 0.13593,-8.5 -0.0414,-1.7875 0.0741,-3.25 0.25661,-3.25 0.18256,0 1.49862,3.825 2.92458,8.5 l 2.59266,8.5 h 4.93948 4.93949 v -22.05479 -22.05479 l -4.75,0.30479 -4.75,0.30479 -0.5,7.5 -0.5,7.5 -2.42606,-7.75 -2.42606,-7.75 h -4.67782 -4.67781 l -0.69966,12.59266 c -0.38481,6.92596 -0.38892,16.82596 -0.009,22 l 0.69043,9.40734 h 4.36299 4.36299 z m 69.78875,0.75 v -4.5 h -4 -4 v -5.00322 -5.00321 l 3.25,0.25321 c 3.15499,0.24582 3.25899,0.12898 3.5575,-3.99678 l 0.3075,-4.25 h -3.5575 c -3.47466,0 -3.5575,-0.0917 -3.5575,-3.93963 0,-3.83063 0.10376,-3.94823 3.75,-4.25 3.64003,-0.30127 3.75902,-0.435 4.0575,-4.56037 l 0.3075,-4.25 h -10.0575 -10.0575 v 22 22 h 10 10 z"
       id="path1" />
  </g>
</svg>
