<?xml version="1.0" encoding="UTF-8" standalone="no"?>
<!-- Created with Inkscape (http://www.inkscape.org/) -->

<svg
   version="1.1"
   id="svg1"
   width="269.4003"
   height="269.33469"
   viewBox="0 0 269.4003 269.33469"
   xmlns="http://www.w3.org/2000/svg"
   xmlns:svg="http://www.w3.org/2000/svg">
  <defs
     id="defs1" />
  <g
     id="g1"
     transform="translate(-87.973793,-90.485381)"
     style="fill:#ffffff;fill-opacity:1">
    <path
       style="fill:#ffffff;fill-opacity:1"
       d="M 208.70827,359.32921 C 148.65119,352.47034 100.71982,308.00585 89.698752,248.92765 c -2.51807,-13.49808 -2.24311,-37.02111 0.5882,-50.3206 1.86977,-8.78287 7.51051,-26.91419 8.79149,-28.25896 0.23439,-0.24606 4.161848,3.26891 8.727708,7.81105 l 8.30155,8.25843 -2.22962,7.69786 c -3.23516,11.16956 -4.82572,25.76001 -4.10043,37.61392 0.90578,14.80381 6.75619,36.56611 9.83015,36.56611 0.69668,0 3.33967,2.04181 5.87332,4.53737 l 4.60663,4.53736 11.95521,-12.28736 c 17.36493,-17.8474 27.20182,-31.68762 36.4523,-51.28737 10.84258,-22.97303 16.91728,-49.95821 16.93972,-75.25 l 0.008,-9.25 h -2.95924 c -3.83144,0 -12.04076,-4.93805 -12.04076,-7.24272 0,-0.9665 -0.23499,-1.75728 -0.5222,-1.75728 -0.28721,0 -3.99971,1.75854 -8.25,3.90787 -13.12902,6.6392 -25.16898,16.08474 -35.06769,27.51114 l -3.33989,3.85534 -7.85149,-7.80544 -7.8515,-7.80544 4.52558,-5.08174 c 19.79381,-22.22631 49.66447,-38.475401 79.38157,-43.182131 12.63459,-2.00112 37.37339,-1.44226 48.97562,1.10638 23.42172,5.145 45.86724,16.692711 63.3277,32.580671 l 6.8277,6.21279 -7.71854,7.76408 -7.71855,7.76407 -7.42939,-6.4794 c -12.64516,-11.02841 -32.28872,-22.47399 -32.28872,-18.81356 0,2.26466 -8.84445,7.46537 -12.69578,7.46537 h -3.30422 l 0.009,6.25 c 0.025,18.24533 3.69055,41.56885 9.1547,58.25 3.86238,11.79121 14.19743,32.83256 21.3551,43.47729 6.42467,9.55464 18.09165,23.35274 27.89243,32.98734 l 6.57614,6.46463 4.25654,-4.12231 c 2.3411,-2.26727 5.15584,-4.28238 6.25498,-4.47802 2.54252,-0.45256 4.64638,-4.98263 7.5835,-16.32893 2.01474,-7.78308 2.3324,-11.43384 2.34933,-27 0.0181,-16.62198 -0.1923,-18.76557 -2.74788,-28 -1.5221,-5.5 -3.88864,-12.44986 -5.25897,-15.44413 l -2.49152,-5.44413 7.76009,-7.80587 c 4.2676,-4.29323 8.13592,-7.80587 8.59581,-7.80587 1.21502,0 6.33697,11.71709 10.30291,23.56912 9.43002,28.18121 8.27404,62.8256 -3.03778,91.04104 -17.08216,42.60863 -54.66107,73.73576 -99.51513,82.42979 -11.41886,2.21331 -29.78897,3.13416 -39.77416,1.9938 z m 27.23491,-22.14231 c 10.04091,-1.23048 23.34769,-4.79518 31.1446,-8.34321 4.74937,-2.16122 5.20004,-2.66916 5.86611,-6.61162 0.52106,-3.08412 1.93943,-5.5726 5.1054,-8.95728 2.41114,-2.57771 4.3658,-5.09007 4.3437,-5.58303 -0.0221,-0.49297 -8.05972,-5.28969 -17.86137,-10.65939 -22.23606,-12.18172 -29.2478,-14.27394 -45.08302,-13.45226 -11.00935,0.57127 -17.08923,2.19395 -27.0379,7.21623 -5.69238,2.87362 -30.17534,16.42263 -30.87878,17.08848 -0.22069,0.2089 1.63956,2.56162 4.1339,5.22826 3.23635,3.45993 4.73381,6.02432 5.22884,8.95439 0.67302,3.98359 0.90947,4.19578 7.9338,7.12002 18.67122,7.77285 37.46751,10.40589 57.10472,7.99941 z m -77.95455,-45.34599 c 4.58177,-4.58176 1.84016,-11.54545 -4.54545,-11.54545 -6.38561,0 -9.12722,6.96369 -4.54545,11.54545 3.11461,3.11462 5.97629,3.11462 9.0909,0 z m 136.77029,1.30485 c 2.94453,-1.54988 3.65087,-2.79072 3.66895,-6.44531 0.0357,-7.21296 -10.15811,-9.22896 -12.9223,-2.55561 -1.47094,3.55116 0.0256,7.84958 3.17307,9.11408 3.05532,1.22746 3.55082,1.21824 6.08028,-0.11316 z M 169.69318,280.52219 c 2.39825,-2.10595 2.25369,-7.46093 -0.26291,-9.73841 -2.85133,-2.58042 -7.86684,-2.35504 -10.14292,0.4558 -5.83207,7.2023 3.39814,15.43619 10.40583,9.28261 z m 116.25557,-0.23288 c 4.23593,-4.68065 -1.20188,-13.25832 -7.15194,-11.28155 -6.28139,2.08685 -7.03728,10.25586 -1.17699,12.71993 3.60658,1.51645 6.03426,1.09719 8.32893,-1.43838 z M 180.61444,269.64047 c 2.79819,-2.53232 2.38795,-7.75997 -0.80612,-10.27243 -3.21895,-2.53203 -5.49494,-2.62144 -8.21171,-0.32258 -3.18944,2.6988 -3.62783,6.37719 -1.13737,9.54328 2.48919,3.1645 7.27314,3.65996 10.1552,1.05173 z m 93.82874,-0.34501 c 2.70273,-2.70273 2.51846,-6.57245 -0.45455,-9.54545 -2.99863,-2.99864 -5.45043,-3.10374 -8.91059,-0.38197 -5.08347,3.99865 -2.18173,11.92742 4.36514,11.92742 1.66667,0 3.88889,-0.88889 5,-2 z m -37.76329,-19.29283 c 11.75871,-6.89107 17.09198,-20.18494 13.31296,-33.18432 -2.40549,-8.27457 -10.79795,-16.66703 -19.07252,-19.07252 -7.58124,-2.20392 -14.8413,-1.4655 -21.56364,2.19326 -20.75257,11.29496 -19.8471,40.8268 1.56554,51.06025 4.30799,2.05887 6.17,2.34789 13.11306,2.03543 6.54633,-0.2946 8.96174,-0.8738 12.6446,-3.0321 z m -22.48874,-1.13392 c -13.45533,-4.80173 -20.33608,-20.3617 -14.74817,-33.35114 2.46046,-5.7195 8.28207,-11.60628 13.7281,-13.88178 1.92887,-0.80593 6.3791,-1.46533 9.8894,-1.46533 14.21643,0 24.3827,10.47577 24.3827,25.125 0,7.14891 -1.52059,11.24545 -6.11763,16.48119 -6.5401,7.44876 -17.85085,10.40503 -27.1344,7.09206 z m -104.4712,-75.83182 c -7.54194,-7.6153 -8.06911,-8.41172 -6.93881,-10.48286 1.18883,-2.17839 1.45284,-2.0096 9.38527,6 7.54194,7.6153 8.06911,8.41172 6.93881,10.48286 -1.18883,2.17839 -1.45284,2.0096 -9.38527,-6 z m 4.43429,-9.52913 c -7.21453,-7.25709 -7.64212,-7.92139 -6.27566,-9.75 1.40365,-1.87837 1.79395,-1.63648 9.12493,5.6552 6.23574,6.20233 7.53281,8.01368 6.98172,9.75 -0.37225,1.17288 -0.99456,2.1325 -1.3829,2.1325 -0.38834,0 -4.18998,-3.50446 -8.44809,-7.7877 z m 206.55665,5.4759 c -1.00987,-2.21642 -0.47577,-3.02242 6.78806,-10.24364 4.3363,-4.31087 8.02503,-7.63693 8.19717,-7.39125 0.17215,0.24568 0.84422,1.14798 1.49348,2.00512 0.98638,1.30217 -0.18128,2.91313 -7.10105,9.79696 -8.14162,8.09933 -8.30007,8.19788 -9.37766,5.83281 z M 119.69318,155.99375 c -7.47395,-7.43857 -8.1763,-8.68464 -5.94082,-10.53992 1.00672,-0.8355 3.07323,0.69563 8.94492,6.62756 6.74949,6.81872 7.48426,7.91719 6.33058,9.46407 -0.71784,0.9625 -1.48056,1.73064 -1.69492,1.70699 -0.21437,-0.0237 -3.65226,-3.29008 -7.63976,-7.2587 z m 195.85426,4.49652 c -0.79609,-1.4875 0.36209,-3.16384 6.58133,-9.52575 6.03131,-6.16967 7.82534,-7.48991 8.93092,-6.57237 0.76092,0.63151 1.38349,1.68617 1.38349,2.34368 0,1.16946 -14.19196,15.55963 -15.3453,15.55963 -0.32138,0 -1.01908,-0.81233 -1.55044,-1.80519 z m -6.15845,-7.76011 c -1.1169,-1.34578 -0.22445,-2.63993 6.36373,-9.22811 7.27008,-7.27008 7.75165,-7.57397 9.39628,-5.92934 1.64463,1.64463 1.35193,2.11758 -5.71115,9.22811 -4.09454,4.12205 -7.73828,7.49464 -8.0972,7.49464 -0.35892,0 -1.23717,-0.70438 -1.95166,-1.5653 z"
       id="path1" />
  </g>
</svg>
